<?xml version="1.0" encoding="UTF-8"?>
<svg id="Capa_1" data-name="Capa 1" xmlns="http://www.w3.org/2000/svg" viewBox="0 0 850 296.98">
  <defs>
    <style>
      .cls-1 {
        fill: #875b35;
      }

      .cls-1, .cls-2, .cls-3, .cls-4, .cls-5, .cls-6, .cls-7, .cls-8 {
        stroke-width: 0px;
      }

      .cls-2 {
        fill: #9f7e61;
      }

      .cls-3 {
        fill: #532a07;
      }

      .cls-4 {
        fill: #a06937;
      }

      .cls-5 {
        fill: #b6a08e;
      }

      .cls-6 {
        fill: #cec3ba;
      }

      .cls-7 {
        fill: #7f4818;
      }

      .cls-8 {
        fill: #6f3809;
      }
    </style>
  </defs>
  <g>
    <path class="cls-3" d="M354.44,176.12v-73.75h10.94v73.75h-10.94Z"/>
    <path class="cls-3" d="M377.25,176.12v-73.75h14.21l32.1,57.93v-57.93h10.94v73.75h-14.21l-32.1-57.15v57.15h-10.94Z"/>
    <path class="cls-3" d="M446.37,176.12v-73.75h39.21c5.77,0,10.69,2.02,14.75,6.07,4.06,4.04,6.09,8.94,6.09,14.68v32.46c0,5.67-2.03,10.51-6.09,14.52-4.06,4.01-8.98,6.02-14.75,6.02h-39.21ZM457.31,165.17h28.26c2.77,0,5.12-.95,7.05-2.85,1.94-1.9,2.9-4.2,2.9-6.9v-32.31c0-2.73-.97-5.06-2.9-6.98-1.94-1.92-4.29-2.88-7.05-2.88h-28.26v51.91Z"/>
    <path class="cls-3" d="M517.25,155.53v-53.16h10.94v53.05c0,2.7.99,5,2.96,6.9,1.97,1.9,4.34,2.85,7.1,2.85h18.1c2.77,0,5.13-.95,7.1-2.85,1.97-1.9,2.96-4.2,2.96-6.9v-53.05h10.89v53.16c0,5.67-2.05,10.52-6.15,14.55-4.1,4.03-9.03,6.04-14.81,6.04h-18.1c-5.81,0-10.76-2.01-14.86-6.04-4.1-4.03-6.15-8.88-6.15-14.55Z"/>
    <path class="cls-3" d="M587.1,125.65v-5.45c0-4.94,1.79-9.15,5.37-12.63s7.89-5.21,12.94-5.21h38.17v10.89h-38.17c-2.04,0-3.78.71-5.21,2.13-1.43,1.42-2.15,3.13-2.15,5.13v5.08c0,1.83.72,3.41,2.15,4.72,1.43,1.31,3.17,1.97,5.21,1.97h23.49c5.05,0,9.36,1.75,12.94,5.24,3.58,3.49,5.37,7.71,5.37,12.65v8.04c0,4.94-1.79,9.16-5.37,12.65-3.58,3.49-7.89,5.24-12.94,5.24h-41.75v-10.94h41.75c2.04,0,3.78-.68,5.21-2.05,1.43-1.37,2.15-3.02,2.15-4.95v-7.93c0-1.94-.72-3.6-2.15-4.98-1.43-1.38-3.17-2.07-5.21-2.07h-23.49c-5.05,0-9.36-1.71-12.94-5.13-3.58-3.42-5.37-7.55-5.37-12.39Z"/>
    <path class="cls-3" d="M652.85,113.26v-10.89h60.05v10.89h-24.53v62.86h-10.99v-62.86h-24.53Z"/>
    <path class="cls-3" d="M719.58,176.12v-73.75h39c5.01,0,9.3,1.77,12.86,5.32,3.56,3.54,5.34,7.82,5.34,12.84v7.36c0,5.05-1.76,9.29-5.29,12.73s-7.85,5.16-12.96,5.16l21.99,30.34h-13.33l-21.99-30.34h-8.45v-10.89h21.83c2.01,0,3.73-.7,5.16-2.1s2.15-3.09,2.15-5.06v-7.21c0-2.01-.72-3.72-2.15-5.13-1.43-1.42-3.15-2.13-5.16-2.13h-28.06v62.86h-10.94Z"/>
    <path class="cls-3" d="M783.05,102.37h13.33l20.22,27.95,20.12-27.95h13.28l-27.8,38.53v35.21h-11.2v-35.21l-27.95-38.53Z"/>
  </g>
  <g>
    <path class="cls-3" d="M354.44,69.88v-32.26c0-5.74,2.14-10.63,6.43-14.68,4.29-4.05,9.47-6.07,15.56-6.07h17.27c6.08,0,11.27,2.02,15.56,6.07,4.29,4.04,6.43,8.94,6.43,14.68v32.26c0,5.74-2.14,10.63-6.43,14.68-4.29,4.04-9.47,6.07-15.56,6.07h-17.27c-6.09,0-11.27-2.02-15.56-6.07-4.29-4.04-6.43-8.94-6.43-14.68ZM365.38,69.94c0,2.7,1.08,5,3.24,6.92,2.16,1.92,4.76,2.88,7.8,2.88h17.27c3.04,0,5.64-.96,7.8-2.88,2.16-1.92,3.24-4.23,3.24-6.92v-32.36c0-2.7-1.08-5-3.24-6.92-2.16-1.92-4.76-2.88-7.8-2.88h-17.27c-3.04,0-5.64.96-7.8,2.88-2.16,1.92-3.24,4.23-3.24,6.92v32.36Z"/>
    <path class="cls-3" d="M427.55,90.63V16.88h39c5.01,0,9.3,1.77,12.86,5.32,3.56,3.54,5.34,7.82,5.34,12.84v7.36c0,4.94-1.77,9.16-5.32,12.65-3.54,3.49-7.84,5.24-12.89,5.24h-21.83v-10.89h21.83c2.04,0,3.77-.69,5.19-2.07,1.42-1.38,2.13-3.08,2.13-5.08v-7.21c0-2.01-.72-3.72-2.15-5.13-1.43-1.42-3.15-2.13-5.16-2.13h-28.06v62.86h-10.94Z"/>
    <path class="cls-3" d="M494.8,90.63V16.88h57.2v10.89h-46.26v51.91h46.26v10.94h-57.2ZM511.97,57.7v-10.89h40.04v10.89h-40.04Z"/>
    <path class="cls-3" d="M562.84,90.63V16.88h14.21l32.1,57.93V16.88h10.94v73.75h-14.21l-32.1-57.15v57.15h-10.94Z"/>
  </g>
  <g>
    <path class="cls-4" d="M354.44,265.8v-73.75h39c5.01,0,9.3,1.77,12.86,5.32,3.56,3.54,5.34,7.82,5.34,12.84v7.36c0,4.94-1.77,9.16-5.32,12.65-3.54,3.49-7.84,5.24-12.89,5.24h-21.83v-10.89h21.83c2.04,0,3.77-.69,5.19-2.07,1.42-1.38,2.13-3.08,2.13-5.08v-7.21c0-2.01-.72-3.72-2.15-5.13-1.43-1.42-3.15-2.13-5.16-2.13h-28.06v62.86h-10.94Z"/>
    <path class="cls-4" d="M421.69,265.8v-73.75h39c5.01,0,9.3,1.77,12.86,5.32,3.56,3.54,5.34,7.82,5.34,12.84v7.36c0,5.05-1.76,9.29-5.29,12.73-3.53,3.44-7.85,5.16-12.96,5.16l21.99,30.34h-13.33l-21.99-30.34h-8.45v-10.89h21.83c2.01,0,3.73-.7,5.16-2.1s2.15-3.09,2.15-5.06v-7.21c0-2.01-.72-3.72-2.15-5.13-1.43-1.42-3.15-2.13-5.16-2.13h-28.06v62.86h-10.94Z"/>
    <path class="cls-4" d="M490.34,245.06v-32.26c0-5.74,2.14-10.63,6.43-14.68,4.29-4.05,9.47-6.07,15.56-6.07h17.27c6.08,0,11.27,2.02,15.56,6.07,4.29,4.04,6.43,8.94,6.43,14.68v32.26c0,5.74-2.14,10.63-6.43,14.68-4.29,4.04-9.47,6.07-15.56,6.07h-17.27c-6.09,0-11.27-2.02-15.56-6.07-4.29-4.04-6.43-8.94-6.43-14.68ZM501.29,245.11c0,2.7,1.08,5,3.24,6.92,2.16,1.92,4.76,2.88,7.8,2.88h17.27c3.04,0,5.64-.96,7.8-2.88,2.16-1.92,3.24-4.23,3.24-6.92v-32.36c0-2.7-1.08-5-3.24-6.92-2.16-1.92-4.76-2.88-7.8-2.88h-17.27c-3.04,0-5.64.96-7.8,2.88-2.16,1.92-3.24,4.23-3.24,6.92v32.36Z"/>
    <path class="cls-4" d="M558.27,265.8v-10.89h13.17c2.73,0,5.06-.95,7-2.85,1.94-1.9,2.9-4.2,2.9-6.9v-53.11h10.89v53.26c0,5.64-2.03,10.46-6.09,14.47-4.06,4.01-8.96,6.02-14.7,6.02h-13.17Z"/>
    <path class="cls-4" d="M604.11,265.8v-73.75h57.2v10.89h-46.26v51.91h46.26v10.94h-57.2ZM621.27,232.87v-10.89h40.04v10.89h-40.04Z"/>
    <path class="cls-4" d="M671.1,245.42v-32.62c0-5.74,2.06-10.63,6.17-14.68,4.11-4.05,9.08-6.07,14.88-6.07h38.64v10.89h-38.64c-2.8,0-5.19.96-7.16,2.88-1.97,1.92-2.96,4.24-2.96,6.98v32.46c0,2.66.99,4.93,2.96,6.79,1.97,1.87,4.36,2.8,7.16,2.8h38.64v10.94h-38.64c-5.81,0-10.77-1.99-14.88-5.96-4.11-3.98-6.17-8.78-6.17-14.42Z"/>
    <path class="cls-4" d="M735.92,202.95v-10.89h60.05v10.89h-24.53v62.86h-10.99v-62.86h-24.53Z"/>
  </g>
  <g>
    <polygon class="cls-4" points=".11 228.87 163.19 296.98 163.19 296.98 .11 228.87"/>
    <polygon class="cls-4" points="161.75 285.57 3.84 219.62 3.84 226.38 163.19 292.93 163.19 292.93 163.19 286.17 161.75 285.57"/>
    <polygon class="cls-4" points="187.57 270.86 227.01 254.41 201.41 244.51 187.57 250.28 187.57 270.86"/>
    <polygon class="cls-4" points="256.97 241.91 296.61 225.37 272.04 215.04 256.97 221.33 256.97 241.91"/>
    <polygon class="cls-4" points="99.19 254.33 134.11 268.91 134.13 268.9 138.8 270.85 138.8 250.28 123.89 244.06 99.19 254.33"/>
    <polygon class="cls-4" points="69.4 229.34 54.35 235.62 69.4 241.9 69.4 229.34"/>
    <polygon class="cls-4" points="29.82 225.38 54.35 235.62 69.4 229.18 69.4 221.33 54.65 215.17 29.82 225.38"/>
    <polygon class="cls-7" points="322.48 219.62 164.63 285.57 163.19 286.17 163.19 286.17 163.19 292.93 322.48 226.38 322.48 219.62"/>
    <path class="cls-8" d="M326.37,177.89l-43.32-18.07v23.75l-56.71,23.66,21.04.22-84.2,35.4-31.56-13.19,54.39-22.87,31.16.33-53.56-22.35-50.89,21.23,59.69.64-48,20.02-31.56-13.17,11.54-4.82-6.94-2.9-11.53,4.81-31.58-13.17,11.53-4.81-6.16-2.57-11.52,4.81-38.03-15.86,34.01-14.37v-5.02L0,177.89v39.56l.11.04H.11v11.37l163.08,68.11h0l163.02-68.11v-11.34l.17-.07v-39.56ZM162.47,260.16l.72.3h0v18.77l-18.56-7.74v-18.77l17.84,7.45ZM301.99,221.32l-22.4-9.43,22.4-9.35v18.77ZM296.61,225.37l-39.64,16.54v-20.58l15.06-6.29,24.57,10.33ZM232.59,250.27l-23.86-8.82,23.86-9.95v18.77ZM227.01,254.41l-39.44,16.46v-20.58l13.84-5.77,25.6,9.9ZM138.8,270.85l-4.67-1.95h-.02s-34.92-14.56-34.92-14.56l24.7-10.27,14.91,6.22v20.57ZM93.79,231.5v18.77l-18.56-7.74v-18.77l18.56,7.74ZM69.4,229.18l-15.06,6.43,15.06-6.28v12.56l-15.06-6.28-24.52-10.23,24.82-10.21,14.75,6.16v7.86ZM24.39,221.32l-18.56-7.74v-18.77l18.56,7.74v18.77ZM163.19,247.43l95.52-39.86,1.48.02,60.35-25.81h0s0,8.98,0,8.98l-157.36,65.66h0L5.82,190.76v-8.99l157.36,65.66ZM163.19,292.93L3.84,226.38v-6.76l157.91,65.95,1.44.6h0s1.44-.6,1.44-.6l157.85-65.95v6.76l-159.29,66.55h0Z"/>
    <polygon class="cls-4" points="163.19 256.42 163.19 256.42 163.19 247.43 5.82 181.77 5.82 190.76 163.19 256.42"/>
    <polygon class="cls-7" points="144.62 271.49 163.19 279.23 163.19 260.46 163.19 260.46 162.47 260.16 144.62 252.71 144.62 271.49"/>
    <polygon class="cls-7" points="232.59 250.27 232.59 231.5 208.73 241.46 232.59 250.27"/>
    <polygon class="cls-7" points="279.59 211.89 301.99 221.32 301.99 202.55 279.59 211.89"/>
    <polygon class="cls-7" points="75.23 242.53 93.79 250.27 93.79 231.5 75.23 223.76 75.23 242.53"/>
    <polygon class="cls-7" points="5.82 213.57 24.39 221.32 24.39 202.54 5.82 194.8 5.82 213.57"/>
    <polygon class="cls-4" points="217.18 207.13 186.02 206.8 131.63 229.67 163.19 242.86 247.39 207.45 226.35 207.23 221.88 209.09 217.18 207.13"/>
    <polygon class="cls-4" points="104.39 208.69 92.85 213.51 124.41 226.68 172.41 206.65 112.72 206.02 105.36 209.09 104.39 208.69"/>
    <polygon class="cls-4" points="65.88 192.62 54.35 197.43 85.92 210.6 97.45 205.79 65.88 192.62"/>
    <polygon class="cls-4" points="44.18 164.63 10.17 179 48.2 194.86 59.72 190.05 44.18 183.57 44.18 164.63"/>
    <polygon class="cls-7" points="163.19 256.42 320.55 190.76 320.55 181.77 320.54 181.77 260.19 207.59 258.71 207.57 163.19 247.43 163.19 256.42"/>
    <polygon class="cls-5" points="54.65 116.7 105.36 137.86 124.65 129.81 73.95 108.65 54.65 116.7"/>
    <polygon class="cls-5" points="135.41 125.32 156.06 116.7 133.03 107.09 105.36 95.55 84.55 104.23 135.41 125.32"/>
    <path class="cls-6" d="M50.01,179.69l52.44,21.88v-58.62l-52.44-21.88v58.62ZM85.17,191.05l-32.83-13.7v-6.78l32.83,13.7v6.78ZM85.17,180.81l-32.83-13.7v-6.78l32.83,13.7v6.78ZM52.34,150.1l32.83,13.7v6.78l-32.83-13.7v-6.78Z"/>
    <polygon class="cls-2" points="108.27 201.57 160.71 179.69 160.71 121.07 139.49 129.92 139.49 149.44 128.73 153.93 128.73 134.41 108.27 142.95 108.27 201.57"/>
    <polygon class="cls-6" points="73.95 108.65 124.65 129.81 135.41 125.32 84.55 104.23 73.95 108.65"/>
    <polygon class="cls-5" points="139.49 149.44 139.49 129.92 128.73 134.41 128.73 153.93 139.49 149.44"/>
    <path class="cls-3" d="M44.18,164.63v18.94l15.54,6.48,6.16,2.57,31.57,13.17,6.94,2.9.96.4,7.37-3.07,50.89-21.23,53.56,22.35,4.7,1.96,4.47-1.86,56.71-23.66v-68.8l-58.26-24.31V25.53L163.62,0l-61.18,25.53v64.93l-58.26,24.31v49.86ZM108.27,90.45V31.84l52.44,21.88v58.62l-52.44-21.88ZM277.23,179.69l-52.44,21.88v-58.62l20.46-8.54,10.77-4.49,21.21-8.85v58.62ZM166.53,112.33v-58.62l20.46-8.54,10.77-4.49,21.21-8.85v58.62l-52.44,21.88ZM166.53,179.69v-58.62l25.13,10.49,27.3,11.39v58.62l-27.3-11.39-25.13-10.49ZM128.73,134.41l10.77-4.49,21.21-8.85v58.62l-52.44,21.88v-58.62l20.46-8.54ZM251.93,125.32l-10.75,4.49-19.3,8.05-50.7-21.15,19.3-8.05,3.73-1.56,6.86-2.86,20.81-8.68,50.7,21.16-20.65,8.62ZM214.32,27.46l-20.65,8.62-10.75,4.49-19.3,8.05-50.7-21.15,19.3-8.05,10.6-4.42,20.81-8.68,50.7,21.16ZM133.03,107.09l23.03,9.61-20.65,8.62-10.75,4.49-19.3,8.05-50.7-21.15,19.3-8.05,10.6-4.42,20.81-8.68,27.67,11.55ZM102.44,142.95v58.62l-52.44-21.88v-58.62l52.44,21.88Z"/>
    <polygon class="cls-2" points="52.34 170.57 52.34 177.35 85.17 191.05 85.17 184.27 52.34 170.57"/>
    <polygon class="cls-2" points="52.34 160.34 52.34 167.11 85.17 180.81 85.17 174.03 52.34 160.34"/>
    <polygon class="cls-2" points="85.17 170.57 85.17 163.79 52.34 150.1 52.34 156.88 85.17 170.57"/>
    <polygon class="cls-1" points="171.18 116.7 221.88 137.86 241.18 129.81 190.47 108.65 171.18 116.7"/>
    <polygon class="cls-1" points="201.07 104.23 251.93 125.32 272.58 116.7 221.88 95.55 201.07 104.23"/>
    <polygon class="cls-6" points="218.97 201.57 218.97 142.95 191.66 131.56 191.66 159.61 201.7 163.79 201.7 170.57 191.66 166.39 191.66 169.85 201.7 174.03 201.7 180.81 191.66 176.62 191.66 180.08 201.7 184.27 201.7 191.05 191.66 186.86 191.66 190.18 218.97 201.57"/>
    <polygon class="cls-2" points="256.02 149.44 245.25 153.93 245.25 134.41 224.79 142.95 224.79 201.57 277.23 179.69 277.23 121.07 256.02 129.92 256.02 149.44"/>
    <polygon class="cls-6" points="194.21 107.09 190.47 108.65 241.18 129.81 251.93 125.32 201.07 104.23 194.21 107.09"/>
    <polygon class="cls-5" points="245.25 153.93 256.02 149.44 256.02 129.92 245.25 134.41 245.25 153.93"/>
    <polygon class="cls-2" points="168.87 177.35 168.87 170.57 191.66 180.08 191.66 176.62 168.87 167.11 168.87 160.34 191.66 169.85 191.66 166.39 168.87 156.88 168.87 150.1 191.66 159.61 191.66 131.56 166.53 121.07 166.53 179.69 191.66 190.18 191.66 186.86 168.87 177.35"/>
    <polygon class="cls-2" points="201.7 191.05 201.7 184.27 191.66 180.08 191.66 186.86 201.7 191.05"/>
    <polygon class="cls-1" points="168.87 170.57 168.87 177.35 191.66 186.86 191.66 180.08 168.87 170.57"/>
    <polygon class="cls-2" points="191.66 176.62 201.7 180.81 201.7 174.03 191.66 169.85 191.66 176.62"/>
    <polygon class="cls-1" points="168.87 160.34 168.87 167.11 191.66 176.62 191.66 169.85 168.87 160.34"/>
    <polygon class="cls-2" points="191.66 166.39 201.7 170.57 201.7 163.79 191.66 159.61 191.66 166.39"/>
    <polygon class="cls-1" points="168.87 150.1 168.87 156.88 191.66 166.39 191.66 159.61 168.87 150.1"/>
    <polygon class="cls-5" points="112.92 27.46 163.62 48.62 182.91 40.57 132.21 19.41 112.92 27.46"/>
    <polygon class="cls-5" points="193.67 36.08 214.32 27.46 163.62 6.31 142.81 14.99 193.67 36.08"/>
    <path class="cls-6" d="M160.71,53.71l-52.44-21.88v58.62l52.44,21.88v-58.62ZM110.61,60.86l32.83,13.7v6.78l-32.83-13.7v-6.78ZM110.61,71.1l32.83,13.7v6.78l-32.83-13.7v-6.78ZM110.61,81.34l32.83,13.7v6.78l-32.83-13.7v-6.78Z"/>
    <polygon class="cls-2" points="197.76 40.69 197.76 60.2 186.99 64.7 186.99 45.18 166.53 53.71 166.53 112.33 218.97 90.45 218.97 31.84 197.76 40.69"/>
    <polygon class="cls-6" points="132.21 19.41 182.91 40.57 193.67 36.08 142.81 14.99 132.21 19.41"/>
    <polygon class="cls-5" points="197.76 60.2 197.76 40.69 186.99 45.18 186.99 64.7 197.76 60.2"/>
    <polygon class="cls-2" points="143.43 95.03 110.61 81.34 110.61 88.11 143.43 101.81 143.43 95.03"/>
    <polygon class="cls-2" points="143.43 84.79 110.61 71.1 110.61 77.88 143.43 91.57 143.43 84.79"/>
    <polygon class="cls-2" points="143.43 74.56 110.61 60.86 110.61 67.64 143.43 81.34 143.43 74.56"/>
  </g>
</svg>