<?xml version="1.0" encoding="UTF-8"?>
<svg xmlns="http://www.w3.org/2000/svg" xmlns:xlink="http://www.w3.org/1999/xlink" width="16px" height="16px" viewBox="0 0 16 16" version="1.1">
<g id="surface1">
<path style=" stroke:none;fill-rule:nonzero;fill:rgb(62.745098%,41.176471%,21.568627%);fill-opacity:1;" d="M 7.929688 15.386719 L 0.195312 11.832031 L 0.195312 12.195312 L 8 15.78125 L 8 15.417969 Z M 7.929688 15.386719 "/>
<path style=" stroke:none;fill-rule:nonzero;fill:rgb(62.745098%,41.176471%,21.568627%);fill-opacity:1;" d="M 9.195312 14.59375 L 11.125 13.707031 L 9.871094 13.171875 L 9.195312 13.484375 Z M 9.195312 14.59375 "/>
<path style=" stroke:none;fill-rule:nonzero;fill:rgb(62.745098%,41.176471%,21.568627%);fill-opacity:1;" d="M 12.59375 13.03125 L 14.535156 12.140625 L 13.332031 11.585938 L 12.59375 11.925781 Z M 12.59375 13.03125 "/>
<path style=" stroke:none;fill-rule:nonzero;fill:rgb(62.745098%,41.176471%,21.568627%);fill-opacity:1;" d="M 6.578125 14.488281 L 6.804688 14.59375 L 6.804688 13.484375 L 6.074219 13.148438 L 4.863281 13.703125 L 6.574219 14.488281 Z M 6.578125 14.488281 "/>
<path style=" stroke:none;fill-rule:nonzero;fill:rgb(62.745098%,41.176471%,21.568627%);fill-opacity:1;" d="M 3.40625 12.355469 L 2.667969 12.695312 L 3.40625 13.03125 Z M 3.40625 12.355469 "/>
<path style=" stroke:none;fill-rule:nonzero;fill:rgb(62.745098%,41.176471%,21.568627%);fill-opacity:1;" d="M 3.40625 12.347656 L 3.40625 11.925781 L 2.683594 11.59375 L 1.46875 12.144531 L 2.667969 12.695312 Z M 3.40625 12.347656 "/>
<path style=" stroke:none;fill-rule:nonzero;fill:rgb(49.803922%,28.235294%,9.411765%);fill-opacity:1;" d="M 8 16 L 10.660156 14.777344 Z M 8 16 "/>
<path style=" stroke:none;fill-rule:nonzero;fill:rgb(49.803922%,28.235294%,9.411765%);fill-opacity:1;" d="M 15.804688 11.832031 L 8.070312 15.386719 L 8 15.417969 L 8 15.78125 L 15.804688 12.195312 Z M 15.804688 11.832031 "/>
<path style=" stroke:none;fill-rule:nonzero;fill:rgb(43.529412%,21.960784%,3.529412%);fill-opacity:1;" d="M 15.992188 9.585938 L 13.871094 8.609375 L 13.871094 9.890625 L 11.09375 11.164062 L 12.125 11.175781 L 8 13.085938 L 6.453125 12.375 L 9.117188 11.140625 L 10.644531 11.160156 L 8.019531 9.957031 L 5.527344 11.101562 L 8.453125 11.132812 L 6.101562 12.214844 L 4.554688 11.503906 L 5.121094 11.242188 L 4.78125 11.089844 L 4.214844 11.347656 L 2.667969 10.636719 L 3.234375 10.378906 L 2.929688 10.238281 L 2.367188 10.5 L 0.503906 9.644531 L 2.171875 8.871094 L 2.171875 8.589844 L 0.0078125 9.585938 L 0.0078125 11.714844 L 0.0117188 11.71875 L 0.0117188 12.332031 L 8 16 L 10.660156 14.777344 L 15.984375 12.332031 L 15.984375 11.71875 L 15.992188 11.714844 Z M 2.042969 10.597656 L 8 13.332031 L 10.324219 12.261719 C 10.324219 12.261719 10.753906 12.066406 10.753906 12.066406 C 10.753906 12.066406 12.679688 11.183594 12.679688 11.183594 L 12.75 11.183594 L 15.707031 9.792969 L 15.707031 10.277344 L 8 13.816406 C 8 13.816406 0.292969 10.277344 0.292969 10.277344 L 0.292969 9.792969 Z M 4.601562 12.472656 L 4.601562 13.484375 L 3.691406 13.066406 L 3.691406 12.054688 Z M 2.683594 11.59375 L 3.40625 11.925781 L 3.40625 12.347656 L 2.667969 12.695312 L 3.40625 12.355469 L 3.40625 13.03125 L 2.667969 12.695312 L 1.46875 12.144531 Z M 6.074219 13.148438 L 6.804688 13.484375 L 6.804688 14.59375 L 6.578125 14.488281 L 6.574219 14.488281 C 6.574219 14.488281 4.863281 13.703125 4.863281 13.703125 Z M 7.964844 14.015625 L 8 14.03125 C 8 14.03125 8 15.042969 8 15.042969 L 7.089844 14.625 L 7.089844 13.617188 Z M 14.800781 11.921875 L 13.703125 11.414062 L 14.800781 10.914062 Z M 14.535156 12.140625 L 12.59375 13.03125 L 12.59375 11.925781 L 13.332031 11.585938 Z M 11.398438 13.484375 L 10.230469 13.007812 L 11.398438 12.472656 Z M 11.125 13.707031 L 9.195312 14.59375 L 9.195312 13.484375 L 9.871094 13.171875 Z M 1.199219 10.914062 L 1.199219 11.925781 L 0.292969 11.507812 L 0.292969 10.496094 Z M 8 15.78125 L 0.195312 12.195312 L 0.195312 11.832031 L 7.929688 15.386719 L 8 15.417969 C 8 15.417969 8.070312 15.386719 8.070312 15.386719 L 15.800781 11.832031 L 15.800781 12.195312 Z M 8 15.78125 "/>
<path style=" stroke:none;fill-rule:nonzero;fill:rgb(62.745098%,41.176471%,21.568627%);fill-opacity:1;" d="M 8 13.816406 L 8 13.332031 L 2.042969 10.597656 L 0.292969 9.792969 L 0.292969 10.277344 Z M 8 13.816406 "/>
<path style=" stroke:none;fill-rule:nonzero;fill:rgb(49.803922%,28.235294%,9.411765%);fill-opacity:1;" d="M 7.089844 14.625 L 8 15.042969 L 8 14.03125 L 7.964844 14.015625 L 7.089844 13.613281 Z M 7.089844 14.625 "/>
<path style=" stroke:none;fill-rule:nonzero;fill:rgb(49.803922%,28.235294%,9.411765%);fill-opacity:1;" d="M 11.398438 13.484375 L 11.398438 12.472656 L 10.230469 13.007812 Z M 11.398438 13.484375 "/>
<path style=" stroke:none;fill-rule:nonzero;fill:rgb(49.803922%,28.235294%,9.411765%);fill-opacity:1;" d="M 13.703125 11.414062 L 14.800781 11.921875 L 14.800781 10.914062 Z M 13.703125 11.414062 "/>
<path style=" stroke:none;fill-rule:nonzero;fill:rgb(49.803922%,28.235294%,9.411765%);fill-opacity:1;" d="M 3.691406 13.066406 L 4.601562 13.484375 L 4.601562 12.472656 L 3.691406 12.054688 Z M 3.691406 13.066406 "/>
<path style=" stroke:none;fill-rule:nonzero;fill:rgb(49.803922%,28.235294%,9.411765%);fill-opacity:1;" d="M 1.199219 11.921875 L 1.199219 10.914062 L 0.292969 10.496094 L 0.292969 11.507812 Z M 1.199219 11.921875 "/>
<path style=" stroke:none;fill-rule:nonzero;fill:rgb(62.745098%,41.176471%,21.568627%);fill-opacity:1;" d="M 10.644531 11.160156 L 9.117188 11.140625 L 6.453125 12.375 L 8 13.085938 L 12.125 11.175781 L 11.09375 11.164062 L 10.875 11.265625 Z M 10.644531 11.160156 "/>
<path style=" stroke:none;fill-rule:nonzero;fill:rgb(62.745098%,41.176471%,21.568627%);fill-opacity:1;" d="M 5.121094 11.242188 L 4.554688 11.503906 L 6.101562 12.210938 L 8.453125 11.132812 L 5.527344 11.097656 L 5.167969 11.265625 Z M 5.121094 11.242188 "/>
<path style=" stroke:none;fill-rule:nonzero;fill:rgb(62.745098%,41.176471%,21.568627%);fill-opacity:1;" d="M 3.234375 10.378906 L 2.667969 10.636719 L 4.214844 11.347656 L 4.78125 11.085938 Z M 3.234375 10.378906 "/>
<path style=" stroke:none;fill-rule:nonzero;fill:rgb(62.745098%,41.176471%,21.568627%);fill-opacity:1;" d="M 2.171875 8.871094 L 0.503906 9.644531 L 2.367188 10.5 L 2.929688 10.238281 L 2.171875 9.890625 Z M 2.171875 8.871094 "/>
<path style=" stroke:none;fill-rule:nonzero;fill:rgb(49.803922%,28.235294%,9.411765%);fill-opacity:1;" d="M 8 13.816406 L 15.707031 10.277344 L 15.707031 9.792969 L 12.75 11.183594 L 12.679688 11.183594 L 10.753906 12.066406 L 10.324219 12.261719 L 8 13.332031 Z M 8 13.816406 "/>
<path style=" stroke:none;fill-rule:nonzero;fill:rgb(71.372549%,62.745098%,55.686275%);fill-opacity:1;" d="M 2.683594 6.289062 L 5.167969 7.425781 L 6.113281 6.992188 L 3.628906 5.855469 Z M 2.683594 6.289062 "/>
<path style=" stroke:none;fill-rule:nonzero;fill:rgb(71.372549%,62.745098%,55.686275%);fill-opacity:1;" d="M 4.148438 5.617188 L 6.640625 6.75 L 7.652344 6.289062 L 5.820312 5.449219 L 5.167969 5.148438 Z M 4.148438 5.617188 "/>
<path style=" stroke:none;fill-rule:nonzero;fill:rgb(80.784314%,76.470588%,72.941176%);fill-opacity:1;" d="M 5.023438 10.859375 L 5.023438 7.703125 L 2.457031 6.523438 L 2.457031 9.679688 Z M 2.570312 8.453125 L 2.570312 8.085938 L 4.179688 8.824219 L 4.179688 9.191406 Z M 2.570312 8.636719 L 4.179688 9.375 L 4.179688 9.742188 L 2.570312 9.003906 Z M 2.570312 9.191406 L 4.179688 9.925781 L 4.179688 10.292969 L 2.570312 9.554688 Z M 2.570312 9.191406 "/>
<path style=" stroke:none;fill-rule:nonzero;fill:rgb(62.352941%,49.411765%,38.039216%);fill-opacity:1;" d="M 7.878906 9.679688 L 7.878906 6.523438 L 6.839844 7 L 6.839844 8.050781 L 6.3125 8.292969 L 6.3125 7.242188 L 5.308594 7.703125 L 5.308594 10.859375 Z M 7.878906 9.679688 "/>
<path style=" stroke:none;fill-rule:nonzero;fill:rgb(80.784314%,76.470588%,72.941176%);fill-opacity:1;" d="M 3.628906 5.855469 L 6.113281 6.992188 L 6.640625 6.75 L 4.148438 5.617188 Z M 3.628906 5.855469 "/>
<path style=" stroke:none;fill-rule:nonzero;fill:rgb(71.372549%,62.745098%,55.686275%);fill-opacity:1;" d="M 6.839844 8.050781 L 6.839844 7 L 6.3125 7.242188 L 6.3125 8.292969 Z M 6.839844 8.050781 "/>
<path style=" stroke:none;fill-rule:nonzero;fill:rgb(32.54902%,16.470588%,2.745098%);fill-opacity:1;" d="M 2.171875 8.871094 L 2.171875 9.890625 L 2.929688 10.238281 L 3.234375 10.378906 L 4.78125 11.085938 L 5.121094 11.242188 L 5.167969 11.265625 L 5.527344 11.097656 L 8.019531 9.957031 L 10.644531 11.160156 L 10.875 11.265625 L 11.09375 11.164062 L 13.871094 9.890625 L 13.871094 6.183594 L 11.019531 4.875 L 11.019531 1.375 L 8.019531 0 L 5.023438 1.375 L 5.023438 4.875 L 2.171875 6.183594 Z M 13.585938 9.679688 L 11.019531 10.859375 L 11.019531 7.703125 L 12.019531 7.242188 L 12.546875 7 L 13.585938 6.523438 Z M 2.457031 6.523438 L 5.023438 7.703125 L 5.023438 10.859375 L 2.457031 9.679688 Z M 5.308594 7.703125 L 6.3125 7.242188 L 6.839844 7 L 7.878906 6.523438 L 7.878906 9.679688 L 5.308594 10.859375 Z M 8.164062 9.679688 L 8.164062 6.523438 L 9.394531 7.089844 L 10.734375 7.703125 L 10.734375 10.859375 L 9.394531 10.246094 Z M 7.878906 2.894531 L 7.878906 6.050781 L 5.308594 4.875 L 5.308594 1.714844 Z M 12.347656 6.75 L 11.820312 6.992188 L 10.875 7.425781 L 8.390625 6.285156 L 9.335938 5.851562 L 9.855469 5.613281 L 10.234375 5.441406 L 10.875 5.148438 L 13.359375 6.285156 Z M 10.730469 4.875 L 8.164062 6.050781 L 8.164062 2.894531 L 9.164062 2.433594 L 9.691406 2.191406 L 10.730469 1.714844 Z M 10.503906 1.480469 L 9.492188 1.945312 L 8.964844 2.1875 L 8.019531 2.621094 L 5.539062 1.480469 L 6.484375 1.046875 L 7 0.808594 L 8.019531 0.339844 Z M 7.652344 6.289062 L 6.640625 6.75 L 6.113281 6.992188 L 5.167969 7.425781 L 2.683594 6.285156 L 3.628906 5.851562 L 4.148438 5.617188 L 5.167969 5.148438 L 5.820312 5.449219 L 7.648438 6.289062 Z M 7.652344 6.289062 "/>
<path style=" stroke:none;fill-rule:nonzero;fill:rgb(62.352941%,49.411765%,38.039216%);fill-opacity:1;" d="M 4.179688 10.292969 L 4.179688 9.925781 L 2.570312 9.191406 L 2.570312 9.554688 Z M 4.179688 10.292969 "/>
<path style=" stroke:none;fill-rule:nonzero;fill:rgb(62.352941%,49.411765%,38.039216%);fill-opacity:1;" d="M 4.179688 9.742188 L 4.179688 9.375 L 2.570312 8.636719 L 2.570312 9.003906 Z M 4.179688 9.742188 "/>
<path style=" stroke:none;fill-rule:nonzero;fill:rgb(62.352941%,49.411765%,38.039216%);fill-opacity:1;" d="M 4.179688 9.191406 L 4.179688 8.824219 L 2.570312 8.085938 L 2.570312 8.453125 Z M 4.179688 9.191406 "/>
<path style=" stroke:none;fill-rule:nonzero;fill:rgb(52.941176%,35.686275%,20.784314%);fill-opacity:1;" d="M 10.234375 5.441406 L 9.855469 5.617188 L 12.347656 6.75 L 13.359375 6.289062 L 10.875 5.148438 Z M 10.234375 5.441406 "/>
<path style=" stroke:none;fill-rule:nonzero;fill:rgb(52.941176%,35.686275%,20.784314%);fill-opacity:1;" d="M 8.390625 6.289062 L 10.875 7.425781 L 11.820312 6.992188 L 9.335938 5.855469 Z M 8.390625 6.289062 "/>
<path style=" stroke:none;fill-rule:nonzero;fill:rgb(80.784314%,76.470588%,72.941176%);fill-opacity:1;" d="M 9.394531 8.597656 L 9.886719 8.824219 L 9.886719 9.191406 L 9.394531 8.964844 L 9.394531 9.152344 L 9.886719 9.375 L 9.886719 9.742188 L 9.394531 9.515625 L 9.394531 9.703125 L 9.886719 9.925781 L 9.886719 10.292969 L 9.394531 10.066406 L 9.394531 10.246094 L 10.730469 10.859375 L 10.730469 7.703125 L 9.394531 7.085938 Z M 9.394531 8.597656 "/>
<path style=" stroke:none;fill-rule:nonzero;fill:rgb(62.352941%,49.411765%,38.039216%);fill-opacity:1;" d="M 12.546875 8.050781 L 12.019531 8.292969 L 12.019531 7.242188 L 11.019531 7.703125 L 11.019531 10.859375 L 13.585938 9.679688 L 13.585938 6.523438 L 12.546875 7 Z M 12.546875 8.050781 "/>
<path style=" stroke:none;fill-rule:nonzero;fill:rgb(80.784314%,76.470588%,72.941176%);fill-opacity:1;" d="M 9.335938 5.855469 L 11.820312 6.992188 L 12.347656 6.75 L 9.855469 5.617188 Z M 9.335938 5.855469 "/>
<path style=" stroke:none;fill-rule:nonzero;fill:rgb(71.372549%,62.745098%,55.686275%);fill-opacity:1;" d="M 12.019531 8.292969 L 12.546875 8.050781 L 12.546875 7 L 12.019531 7.242188 Z M 12.019531 8.292969 "/>
<path style=" stroke:none;fill-rule:nonzero;fill:rgb(62.352941%,49.411765%,38.039216%);fill-opacity:1;" d="M 9.394531 10.066406 L 8.277344 9.554688 L 8.277344 9.191406 L 9.394531 9.703125 L 9.394531 9.515625 L 8.277344 9.003906 L 8.277344 8.636719 L 9.394531 9.152344 L 9.394531 8.964844 L 8.277344 8.453125 L 8.277344 8.085938 L 9.394531 8.597656 L 9.394531 7.085938 L 8.164062 6.523438 L 8.164062 9.679688 L 9.394531 10.246094 Z M 9.394531 10.066406 "/>
<path style=" stroke:none;fill-rule:nonzero;fill:rgb(62.352941%,49.411765%,38.039216%);fill-opacity:1;" d="M 9.886719 9.925781 L 9.394531 9.703125 L 9.394531 10.066406 L 9.886719 10.292969 Z M 9.886719 9.925781 "/>
<path style=" stroke:none;fill-rule:nonzero;fill:rgb(52.941176%,35.686275%,20.784314%);fill-opacity:1;" d="M 8.277344 9.191406 L 8.277344 9.554688 L 9.394531 10.066406 L 9.394531 9.703125 Z M 8.277344 9.191406 "/>
<path style=" stroke:none;fill-rule:nonzero;fill:rgb(62.352941%,49.411765%,38.039216%);fill-opacity:1;" d="M 9.886719 9.742188 L 9.886719 9.375 L 9.394531 9.152344 L 9.394531 9.515625 Z M 9.886719 9.742188 "/>
<path style=" stroke:none;fill-rule:nonzero;fill:rgb(52.941176%,35.686275%,20.784314%);fill-opacity:1;" d="M 9.394531 9.152344 L 8.277344 8.636719 L 8.277344 9.003906 L 9.394531 9.515625 Z M 9.394531 9.152344 "/>
<path style=" stroke:none;fill-rule:nonzero;fill:rgb(62.352941%,49.411765%,38.039216%);fill-opacity:1;" d="M 9.886719 9.191406 L 9.886719 8.824219 L 9.394531 8.597656 L 9.394531 8.964844 Z M 9.886719 9.191406 "/>
<path style=" stroke:none;fill-rule:nonzero;fill:rgb(52.941176%,35.686275%,20.784314%);fill-opacity:1;" d="M 9.394531 8.597656 L 8.277344 8.085938 L 8.277344 8.453125 L 9.394531 8.964844 Z M 9.394531 8.597656 "/>
<path style=" stroke:none;fill-rule:nonzero;fill:rgb(71.372549%,62.745098%,55.686275%);fill-opacity:1;" d="M 9.492188 1.945312 L 10.503906 1.480469 L 8.019531 0.339844 L 7 0.808594 Z M 9.492188 1.945312 "/>
<path style=" stroke:none;fill-rule:nonzero;fill:rgb(71.372549%,62.745098%,55.686275%);fill-opacity:1;" d="M 5.539062 1.480469 L 8.019531 2.621094 L 8.964844 2.183594 L 6.484375 1.046875 Z M 5.539062 1.480469 "/>
<path style=" stroke:none;fill-rule:nonzero;fill:rgb(80.784314%,76.470588%,72.941176%);fill-opacity:1;" d="M 5.308594 4.875 L 7.878906 6.050781 L 7.878906 2.894531 L 5.308594 1.714844 Z M 5.425781 3.277344 L 7.03125 4.015625 L 7.03125 4.382812 L 5.425781 3.644531 Z M 5.425781 3.832031 L 7.03125 4.570312 L 7.03125 4.933594 L 5.425781 4.195312 Z M 5.425781 4.382812 L 7.03125 5.121094 L 7.03125 5.484375 L 5.425781 4.746094 Z M 5.425781 4.382812 "/>
<path style=" stroke:none;fill-rule:nonzero;fill:rgb(62.352941%,49.411765%,38.039216%);fill-opacity:1;" d="M 9.695312 3.242188 L 9.167969 3.484375 L 9.167969 2.433594 L 8.164062 2.894531 L 8.164062 6.050781 L 10.730469 4.875 L 10.730469 1.714844 L 9.695312 2.191406 Z M 9.695312 3.242188 "/>
<path style=" stroke:none;fill-rule:nonzero;fill:rgb(80.784314%,76.470588%,72.941176%);fill-opacity:1;" d="M 6.484375 1.046875 L 8.964844 2.183594 L 9.492188 1.945312 L 7 0.808594 Z M 6.484375 1.046875 "/>
<path style=" stroke:none;fill-rule:nonzero;fill:rgb(71.372549%,62.745098%,55.686275%);fill-opacity:1;" d="M 9.695312 3.242188 L 9.695312 2.191406 L 9.167969 2.433594 L 9.167969 3.484375 Z M 9.695312 3.242188 "/>
<path style=" stroke:none;fill-rule:nonzero;fill:rgb(62.352941%,49.411765%,38.039216%);fill-opacity:1;" d="M 7.03125 5.121094 L 5.425781 4.382812 L 5.425781 4.746094 L 7.03125 5.484375 Z M 7.03125 5.121094 "/>
<path style=" stroke:none;fill-rule:nonzero;fill:rgb(62.352941%,49.411765%,38.039216%);fill-opacity:1;" d="M 7.03125 4.570312 L 5.425781 3.832031 L 5.425781 4.195312 L 7.03125 4.933594 Z M 7.03125 4.570312 "/>
<path style=" stroke:none;fill-rule:nonzero;fill:rgb(62.352941%,49.411765%,38.039216%);fill-opacity:1;" d="M 7.03125 4.015625 L 5.425781 3.277344 L 5.425781 3.644531 L 7.03125 4.382812 Z M 7.03125 4.015625 "/>
</g>
</svg>
